<?xml version="1.0" standalone="no"?>
<!DOCTYPE svg PUBLIC "-//W3C//DTD SVG 20010904//EN"
 "http://www.w3.org/TR/2001/REC-SVG-20010904/DTD/svg10.dtd">
<svg version="1.0" xmlns="http://www.w3.org/2000/svg"
 width="391.000000pt" height="192.000000pt" viewBox="0 0 391.000000 192.000000"
 preserveAspectRatio="xMidYMid meet">

<g transform="translate(0.000000,192.000000) scale(0.100000,-0.100000)"
fill="#000000" stroke="none">
<path d="M2565 1894 c-173 -38 -297 -135 -350 -274 -25 -65 -27 -81 -23 -178
3 -99 6 -112 38 -170 36 -69 70 -100 142 -132 135 -59 334 -16 443 96 57 58
88 148 69 198 -9 23 -16 21 -86 -24 -111 -70 -213 -77 -262 -19 -14 17 -26 36
-26 42 0 7 39 22 89 34 259 61 374 194 299 343 -45 88 -171 120 -333 84z m12
-151 c4 -16 8 -54 8 -85 0 -49 -4 -61 -29 -87 -38 -40 -66 -41 -66 -3 0 52 21
157 36 180 20 30 42 28 51 -5z"/>
<path d="M1116 1830 c-60 -18 -96 -73 -96 -146 0 -39 5 -51 33 -79 41 -41 77
-51 126 -37 58 18 93 61 99 123 6 69 -16 112 -69 133 -44 18 -51 18 -93 6z"/>
<path d="M1879 1700 c-46 -24 -69 -72 -69 -142 0 -70 40 -137 106 -176 l45
-27 -5 -50 c-14 -129 -135 -271 -192 -224 -13 11 -14 39 -8 213 7 194 6 203
-15 244 -39 77 -136 102 -252 65 -56 -18 -139 -87 -139 -115 0 -9 16 -28 35
-43 l36 -27 -7 -191 c-8 -222 -1 -260 51 -306 85 -74 252 -66 385 19 102 66
211 212 266 355 66 176 28 365 -83 411 -45 19 -111 17 -154 -6z"/>
<path d="M259 1485 c-91 -25 -178 -49 -193 -55 -30 -11 -44 -37 -30 -55 50
-67 47 -53 46 -278 -1 -117 -5 -279 -8 -360 -7 -144 -8 -149 -36 -184 -16 -20
-28 -46 -26 -57 6 -43 44 -36 483 79 134 35 258 71 274 80 53 27 63 54 69 180
7 165 -16 204 -101 176 -48 -16 -65 -37 -122 -154 -48 -98 -78 -132 -120 -141
-11 -3 -35 -8 -53 -12 l-32 -7 5 159 c3 88 7 246 10 352 l5 194 31 43 c37 52
34 85 -9 84 -15 0 -102 -20 -193 -44z"/>
<path d="M1109 1506 c-66 -19 -149 -59 -186 -90 -38 -32 -44 -71 -13 -81 46
-15 49 -34 39 -275 -5 -124 -11 -234 -14 -246 -2 -11 -16 -33 -30 -48 -28 -30
-33 -64 -10 -73 16 -6 166 28 330 73 90 25 129 51 119 79 -3 8 -15 17 -25 20
-36 12 -39 45 -27 306 10 235 10 254 -7 285 -19 35 -68 65 -107 63 -12 0 -44
-6 -69 -13z"/>
<path d="M3570 1309 c-37 -15 -59 -37 -105 -109 -35 -54 -49 -68 -85 -80 -53
-19 -74 -47 -46 -64 11 -6 33 -23 49 -37 l30 -26 -2 -156 c-2 -171 1 -186 52
-217 67 -41 193 -12 271 64 39 38 67 98 53 112 -2 3 -26 -1 -52 -8 -43 -12
-48 -11 -62 7 -11 15 -13 35 -9 79 3 32 6 98 6 146 l0 87 38 11 c21 7 47 21
57 32 15 17 16 24 6 46 -11 25 -15 26 -56 20 l-45 -6 0 39 c0 63 -37 85 -100
60z"/>
<path d="M2978 1025 c-153 -39 -237 -115 -208 -189 18 -49 104 -61 161 -23 42
28 57 67 42 107 -11 29 -10 30 18 30 38 0 49 -24 49 -109 l0 -71 -62 0 c-141
0 -259 -75 -273 -174 -27 -179 195 -247 316 -96 31 38 33 39 51 23 12 -10 41
-18 76 -21 69 -4 134 25 170 78 23 34 29 84 12 110 -8 12 -10 12 -16 -3 -3 -9
-12 -17 -19 -17 -10 0 -14 32 -16 128 -4 142 -18 180 -80 216 -42 25 -147 30
-221 11z m48 -401 c-4 -13 -15 -28 -27 -34 -28 -16 -49 4 -49 45 0 34 22 60
55 67 16 3 21 -3 23 -26 2 -16 1 -39 -2 -52z"/>
<path d="M2096 1010 c-26 -10 -63 -29 -82 -42 -37 -25 -55 -59 -34 -66 37 -13
50 -41 45 -99 -2 -32 -7 -166 -10 -298 -5 -219 -7 -242 -25 -267 -27 -36 -26
-58 3 -58 44 0 292 71 310 89 18 18 18 19 -8 43 l-27 25 4 145 c2 118 6 149
21 172 13 18 25 26 40 24 22 -3 22 -5 18 -144 -4 -169 4 -193 73 -219 103 -39
246 39 246 135 0 44 -12 57 -30 35 -27 -32 -31 -12 -28 138 2 143 1 155 -20
189 -25 40 -75 68 -119 67 -57 -1 -138 -45 -169 -90 l-19 -29 -5 116 c-5 107
-7 117 -29 135 -30 24 -91 24 -155 -1z"/>
<path d="M1818 855 c-14 -8 -36 -30 -47 -49 l-22 -35 -45 16 c-98 33 -230 -5
-315 -90 -82 -82 -115 -183 -107 -333 8 -150 56 -226 177 -282 47 -22 63 -24
129 -19 144 11 265 101 308 230 17 52 11 71 -31 87 -28 11 -52 -5 -74 -49 -49
-94 -118 -143 -169 -119 -50 24 -67 78 -67 213 0 137 19 211 62 245 41 32 67
25 132 -34 32 -30 68 -57 80 -61 34 -10 67 17 74 62 11 66 8 208 -5 221 -16
16 -47 15 -80 -3z"/>
</g>
</svg>
